<mxfile host="app.diagrams.net" modified="2024-03-09T18:15:26.379Z" agent="Mozilla/5.0 (Windows NT 10.0; Win64; x64) AppleWebKit/537.36 (KHTML, like Gecko) Chrome/122.0.0.0 Safari/537.36" version="24.0.2" etag="YOlUvUGOClFTWGVFvwfp" type="github">
  <diagram name="Page-1" id="TD4DTzS806658d4enlxl">
    <mxGraphModel>
      <root>
        <mxCell id="0" />
        <mxCell id="1" parent="0" />
      </root>
    </mxGraphModel>
  </diagram>
</mxfile>
